inDegrees=no
num_controls=7
num_derivatives=13
num_iterations=117
num_multipliers=7
num_parameters=0
num_slacks=7
num_states=26
objective=0.442729
objective_accelerations=0.059631
objective_balance=0.003737
objective_effort=0.024154
objective_height=0.349838
objective_ligament=0.005369
solver_duration=1773.568169
status=Solve_Succeeded
success=true
DataType=double
version=3
OpenSimVersion=4.5
endheader
time	/jointset/ground_pelvis/pelvis_tilt/value	/jointset/ground_pelvis/pelvis_tx/value	/jointset/ground_pelvis/pelvis_ty/value	/jointset/hip_l/hip_flexion_l/value	/jointset/hip_l/hip_adduction_l/value	/jointset/hip_l/hip_rotation_l/value	/jointset/back/lumbar_extension/value	/jointset/patellofemoral_l/patellar_flexion_l/value	/jointset/knee_l/knee_flexion_l/value	/jointset/knee_l/knee_adduction_l/value	/jointset/knee_l/knee_rotation_l/value	/jointset/ankle_l/ankle_angle_l/value	/jointset/subtalar_l/subtalar_angle_l/value	/jointset/ground_pelvis/pelvis_tilt/speed	/jointset/ground_pelvis/pelvis_tx/speed	/jointset/ground_pelvis/pelvis_ty/speed	/jointset/hip_l/hip_flexion_l/speed	/jointset/hip_l/hip_adduction_l/speed	/jointset/hip_l/hip_rotation_l/speed	/jointset/back/lumbar_extension/speed	/jointset/patellofemoral_l/patellar_flexion_l/speed	/jointset/knee_l/knee_flexion_l/speed	/jointset/knee_l/knee_adduction_l/speed	/jointset/knee_l/knee_rotation_l/speed	/jointset/ankle_l/ankle_angle_l/speed	/jointset/subtalar_l/subtalar_angle_l/speed	/forceset/tau_hip_flexion_l	/forceset/tau_hip_adduction_l	/forceset/tau_hip_rotation_l	/forceset/tau_knee_flexion_l	/forceset/tau_ankle_angle_l	/forceset/tau_subtalar_angle_l	/forceset/tau_lumbar_extension	lambda_cid13_p0	lambda_cid13_p1	lambda_cid13_p2	lambda_cid13_p3	lambda_cid13_p4	lambda_cid13_p5	lambda_cid14_p0	/jointset/ground_pelvis/pelvis_tilt/accel	/jointset/ground_pelvis/pelvis_tx/accel	/jointset/ground_pelvis/pelvis_ty/accel	/jointset/hip_l/hip_flexion_l/accel	/jointset/hip_l/hip_adduction_l/accel	/jointset/hip_l/hip_rotation_l/accel	/jointset/back/lumbar_extension/accel	/jointset/patellofemoral_l/patellar_flexion_l/accel	/jointset/knee_l/knee_flexion_l/accel	/jointset/knee_l/knee_adduction_l/accel	/jointset/knee_l/knee_rotation_l/accel	/jointset/ankle_l/ankle_angle_l/accel	/jointset/subtalar_l/subtalar_angle_l/accel	gamma_cid13_p0	gamma_cid13_p1	gamma_cid13_p2	gamma_cid13_p3	gamma_cid13_p4	gamma_cid13_p5	gamma_cid14_p0
0	-0.03961310106524794	0.0689525731527197	0.8959543726361873	0.1955287580552426	-0.3219700620546075	-0.4841299053887571	-0.1379045077516729	0.07015288079084885	0.07015288079084844	-0.1745328665059693	-0.118559249708163	-0.06701059314715049	0.003867357686500297	0	0	0	0	0	0	0	0	0	0	0	0	0	0.1084926408047517	-0.1011214335223389	-0.03019939331602458	-0.2333396770475318	0.1878049772394529	-0.01410114562940279	-0.05380537600355465	24.6678080075641	-1.326644066458562	3.452646065465169	1.837499922001328	-514.1962587372312	-82.12768385530133	-39.93400606225185	-4.744015955686621	-1.979502781752471	-1.019961166146597	13.21158365389977	-2.161956376977304	3.457879620723809	-2.899492219889469	10.54035266302386	10.54035266302402	0.7504593072186282	-0.8701949988567281	2.291820148393347	-1.125993517973165	-2.790639279548879e-08	1.217891578408294e-07	1.311387057195918e-07	1.090661967489273e-08	-1.321580673278391e-08	-4.353789824051181e-08	-6.970655362418092e-09
0.01	-0.03983963181099784	0.06885503529305803	0.8959048539407086	0.1961679168322088	-0.3220764371517171	-0.4839562400873166	-0.1380555114638579	0.07066496961283264	0.07066496961283393	-0.1744988203438233	-0.1185963542814843	-0.06690065674400551	0.003810369919781689	-0.04509615220183686	-0.01940732731361874	-0.009871329792814697	0.127250843273312	-0.02116311614547651	0.03459083745899137	-0.02992031038353947	0.1019626024705687	0.1019626024705682	0.006801811549129478	-0.007372014288919105	0.02190878151417603	-0.01131871363608212	0.1040762014742861	-0.09947488547425884	-0.02941725938661285	-0.2282446758806872	0.181394412737768	-0.01185291582680323	-0.04998860329080199	22.66849358676899	-1.984188902652639	3.593118742125215	2.371885253687154	-515.0907530191392	-83.25583468675556	-39.9443965468482	-4.360927207566166	-1.906308832053717	-0.9658601335727912	12.39468562125402	-2.076736378491639	3.438337448634118	-2.996235639554547	9.955941144315805	9.955941144315656	0.6439647030220658	-0.6633563345071398	2.128634227331044	-1.123018690404581	-6.952815409317274e-08	1.57287469957951e-07	2.110561606874733e-07	5.017792365222864e-08	-2.532206933629822e-07	-9.332656467933568e-08	-1.234804477085569e-08
0.02	-0.04051082654979252	0.06856643193508274	0.895757593697757	0.1980621542333452	-0.3223910928393132	-0.4834409360832544	-0.1384973053182728	0.07218302988056825	0.07218302988056809	-0.1743969715413229	-0.1187057093358166	-0.06657398711083846	0.003642553335906499	-0.08893279860902982	-0.03821309966272752	-0.01954830949458104	0.2510157248349092	-0.04165611809730566	0.06832774052387507	-0.05815802844581264	0.2011942891508346	0.2011942891508335	0.01356052806873719	-0.01445009620174389	0.04334664600440458	-0.02216576343131803	0.0996597621437629	-0.09782833742617797	-0.02863512545720386	-0.2231496747138707	0.1749838482360732	-0.009604686024208232	-0.04617183057808859	20.73495528429824	-2.65397617817742	3.736373004469198	2.750208938089462	-515.0203411324537	-84.21435572797972	-39.97495489686748	-4.492114796757836	-1.859191788850484	-0.981091147936926	12.5143913115568	-2.027933538247834	3.287092741902276	-2.562973755636209	9.994169504963313	9.994169504963423	0.741840301314269	-0.8114085236378653	2.197636743603845	-1.031660749803931	-1.111499153908567e-07	1.927857820750726e-07	2.909736156553547e-07	8.944922762956454e-08	-4.932255799931804e-07	-1.431152311181595e-07	-1.772543417929328e-08
0.03	-0.04161469466612715	0.06809268603942838	0.8955141954249453	0.2011778554386489	-0.3229072416886044	-0.4825927743439749	-0.1392128195910769	0.07468036659555734	0.0746803665955556	-0.1742276270481512	-0.1188848240744208	-0.06603522496376436	0.003368739473950003	-0.131623914784058	-0.05644212999044967	-0.0291233817639453	0.3715513897973043	-0.06145447717362399	0.1011664630139666	-0.08470959394447855	0.2978107738641629	0.2978107738641602	0.02028239895450966	-0.02131673825932963	0.0643094612005681	-0.03252177729672697	0.09498240908738535	-0.09452998026330134	-0.02784079616049179	-0.2185501401919604	0.1696489080280504	-0.008860626679308349	-0.04229527736643889	19.09092377036817	-2.761258186965865	3.835711967820846	3.231615372714009	-514.8413126826459	-83.8389393028453	-40.02440626131262	-4.125085914119987	-1.790648184583926	-0.9446203856985271	11.73716470935398	-1.937962971039515	3.261502567559891	-2.665963121405566	9.42604952389822	9.426049523897934	0.6335305206349584	-0.6158400352905639	2.031154522724261	-1.026350099105727	-1.402790795948281e-07	2.122244508609856e-07	3.509540734354253e-07	1.170034611060217e-07	-6.659644862301323e-07	-1.799764345908988e-07	-2.19277351574249e-08
0.04	-0.04313896912146087	0.0674394719345266	0.8951752654055876	0.2054817154177334	-0.3236178093044021	-0.4814203772667962	-0.140186792553752	0.07813000047155688	0.0781300004715568	-0.1739918298384393	-0.1191309148312945	-0.06528972454170832	0.002993609794500154	-0.1730140664088753	-0.07410674151221482	-0.03865465880379811	0.4886474795906215	-0.0805398713985697	0.1331748081039501	-0.1098497664200951	0.3916537213527171	0.3916537213527135	0.02685107137733169	-0.02784529985578117	0.08469430100079799	-0.04242892692998981	0.0903050560310386	-0.09123162310042413	-0.02704646686377539	-0.2139506056700315	0.1643139678200358	-0.008116567334403533	-0.03841872415477116	17.5067636121128	-2.878544957075907	3.936100406667051	3.568259110779352	-513.7861124284191	-83.3038143074002	-40.0911587827341	-4.231921886715661	-1.746308027659096	-0.9723321020346336	11.82647627774121	-1.885340567973304	3.121017261880662	-2.280695151026332	9.4394620600085	9.43946206000876	0.7112006087241843	-0.7437924314110278	2.082041664417107	-0.9418879033747152	-1.691506644772796e-07	2.313319929802756e-07	4.105234591085308e-07	1.443161054999865e-07	-8.373164650362955e-07	-2.165710924354713e-07	-2.610580750812752e-08
0.05	-0.04507143598402148	0.0666125346343491	0.8947409535018952	0.2109407151639324	-0.324515579355344	-0.479932365723349	-0.1414041026853915	0.08250513058521114	0.08250513058521089	-0.1736907693993849	-0.1194412083565013	-0.06434278212493799	0.002521999937146384	-0.2132590152307602	-0.09117263680645549	-0.04821742853692201	0.6025679280464742	-0.09888232251027877	0.1642864583389067	-0.1333612998588634	0.482906392240336	0.4829063922403519	0.03333675548758348	-0.0341545213280588	0.1046103114988949	-0.05179865958661298	0.0852638852995645	-0.08745442946591951	-0.0262601306779442	-0.210009772466745	0.1599810323269012	-0.007788980264998922	-0.03429528224176851	16.22238144695002	-2.867979518387478	4.016713595136658	3.730712240645334	-512.8466079775401	-82.36908177888706	-40.17321385663795	-3.887749821602295	-1.670488938877146	-0.9498742472410019	11.08712224475247	-1.7889896115457	3.085027195014223	-2.34873843295758	8.89828848739792	8.898288487400638	0.6136985948529045	-0.5656019375825285	1.93379718227607	-0.9204405689932661	-1.867466894041143e-07	2.337696125227284e-07	4.451470566595517e-07	1.620967404229204e-07	-9.450516234901203e-07	-2.398767904769036e-07	-2.871912302123078e-08
0.06	-0.04739974602313624	0.06561818664951505	0.8942106889332135	0.2175213780177382	-0.3255928323631584	-0.4781374800194099	-0.1428489993499499	0.08777881118459346	0.08777881118459321	-0.1733255628626922	-0.1198128170829201	-0.0631991963152327	0.00195950782878896	-0.2521827017197413	-0.1075888784435267	-0.05784519180163128	0.7129801011121328	-0.1164364627730277	0.1945496402023059	-0.1553670730038511	0.5713638184983283	0.571363818498361	0.03968029090492491	-0.04010834009819261	0.1240229795877953	-0.06060537713072186	0.08022271456808198	-0.08367723583141376	-0.02547379449211586	-0.2060689392634593	0.1556480968337672	-0.007461393195592787	-0.03017184032877407	14.99151813238304	-2.865354248964115	4.096959099202245	3.762763481444469	-511.1253917310599	-81.28814732561725	-40.26832507579147	-3.967669420134894	-1.616377296225209	-0.9853308083517048	11.12482119970243	-1.727678398181264	2.951323587569186	-1.979543092270226	8.880413134083176	8.88041313408293	0.6827708701421195	-0.6727118909822613	1.98137318257781	-0.829284880871859	-2.03867953911765e-07	2.355053405882618e-07	4.787203052370112e-07	1.794760275786531e-07	-1.050108178981741e-06	-2.6262295336873e-07	-3.12665540359088e-08
